<svg xmlns="http://www.w3.org/2000/svg" width="32" height="32" viewBox="0 0 32 32">
  <defs>
    <linearGradient id="a" x1="99.986%" x2=".004%" y1="49.998%" y2="49.998%">
      <stop stop-color="#37BDA6" offset="0%"/>
      <stop stop-color="#8AD3B8" offset="100%"/>
    </linearGradient>
    <linearGradient id="b" x1="99.986%" x2=".004%" y1="50.002%" y2="50.002%">
      <stop stop-color="#4BB6AD" offset="50%"/>
      <stop stop-color="#78BBC1" offset="100%"/>
    </linearGradient>
    <linearGradient id="c" x1="-.01%" x2="99.971%" y1="50.002%" y2="50.002%">
      <stop stop-color="#4379A7" offset="0%"/>
      <stop stop-color="#7CC9B8" offset="100%"/>
    </linearGradient>
  </defs>
  <g fill="none" fill-rule="evenodd">
    <polygon fill="#13A049" points="15.99 4.567 15.99 13.693 23.971 9.125 23.971 .009" opacity=".5"/>
    <polygon fill="#A2CC39" points="15.99 4.567 8.01 .009 8.01 9.135 15.99 13.702" opacity=".5"/>
    <polygon fill="url(#a)" points="23.971 .009 15.99 4.567 8.01 .009 .029 4.567 15.99 13.702 31.952 4.567" opacity=".9"/>
    <polygon fill="url(#b)" points="15.99 13.702 .029 4.567 .029 13.702 8.01 18.269 8.01 27.404 15.99 31.972 23.971 27.404 23.971 18.269 31.952 13.702 31.952 4.567"/>
    <polygon fill="url(#c)" points="15.99 13.702 15.99 31.972 23.971 27.404 23.971 18.269 31.952 13.702 31.952 4.567"/>
    <polygon fill="#231F20" points="15.99 22.837 15.99 31.972 15.99 31.972 23.971 27.404" opacity=".05"/>
    <polygon fill="#231F20" points="15.99 31.991 15.99 22.856 15.99 22.856 8.01 27.414" opacity=".1"/>
    <polygon fill="#231F20" points="8.01 9.135 .029 13.702 8.01 18.269 15.99 13.702" opacity=".05"/>
    <polygon fill="#231F20" points="23.971 9.135 15.99 13.702 23.971 18.269 31.952 13.702" opacity=".05"/>
  </g>
</svg>
